<mxfile host="app.diagrams.net" agent="Mozilla/5.0 (Windows NT 10.0; Win64; x64) AppleWebKit/537.36 (KHTML, like Gecko) Chrome/135.0.0.0 Safari/537.36" version="26.2.4">
  <diagram name="Página-1" id="49WI6-b5-4OAiTRUaF-x">
    <mxGraphModel dx="868" dy="465" grid="1" gridSize="10" guides="1" tooltips="1" connect="1" arrows="1" fold="1" page="1" pageScale="1" pageWidth="827" pageHeight="1169" math="0" shadow="0">
      <root>
        <mxCell id="0" />
        <mxCell id="1" parent="0" />
        <mxCell id="OZZUEXOuU-KqCi0YCUT9-2" value="&lt;h1 style=&quot;margin-top: 0px;&quot;&gt;O Desafio:&lt;/h1&gt;&lt;p&gt;a) Calcule a média de 3 notas, caso a pessoa estudante tenha tirado uma nota maior ou igual a 7, ela recebe a mensagem de aprovada. Caso contrário, recebe a mensagem de reprovada.&lt;/p&gt;" style="text;html=1;whiteSpace=wrap;overflow=hidden;rounded=0;" vertex="1" parent="1">
          <mxGeometry x="120" y="20" width="530" height="90" as="geometry" />
        </mxCell>
        <mxCell id="OZZUEXOuU-KqCi0YCUT9-3" value="NOTA1, NOTA2, NOTA3" style="rounded=0;whiteSpace=wrap;html=1;" vertex="1" parent="1">
          <mxGeometry x="120" y="120" width="520" height="40" as="geometry" />
        </mxCell>
        <mxCell id="OZZUEXOuU-KqCi0YCUT9-4" value="MEDIA = (NOTA1 + NOTA2 + NOTA3)/3" style="rounded=0;whiteSpace=wrap;html=1;" vertex="1" parent="1">
          <mxGeometry x="120" y="180" width="520" height="30" as="geometry" />
        </mxCell>
        <mxCell id="OZZUEXOuU-KqCi0YCUT9-5" value="MEDIA &amp;gt;= 7" style="rounded=0;whiteSpace=wrap;html=1;" vertex="1" parent="1">
          <mxGeometry x="120" y="230" width="520" height="30" as="geometry" />
        </mxCell>
        <mxCell id="OZZUEXOuU-KqCi0YCUT9-6" value="MEDIA &amp;gt;= 7 SIM&lt;div&gt;APROVADO&lt;/div&gt;" style="rounded=0;whiteSpace=wrap;html=1;" vertex="1" parent="1">
          <mxGeometry x="120" y="280" width="230" height="30" as="geometry" />
        </mxCell>
        <mxCell id="OZZUEXOuU-KqCi0YCUT9-7" value="MEDIA &amp;gt;= 7 NÃO&lt;div&gt;REPROVADO&lt;/div&gt;" style="rounded=0;whiteSpace=wrap;html=1;" vertex="1" parent="1">
          <mxGeometry x="370" y="280" width="270" height="30" as="geometry" />
        </mxCell>
        <mxCell id="OZZUEXOuU-KqCi0YCUT9-16" style="edgeStyle=orthogonalEdgeStyle;rounded=0;orthogonalLoop=1;jettySize=auto;html=1;" edge="1" parent="1" source="OZZUEXOuU-KqCi0YCUT9-9" target="OZZUEXOuU-KqCi0YCUT9-11">
          <mxGeometry relative="1" as="geometry" />
        </mxCell>
        <mxCell id="OZZUEXOuU-KqCi0YCUT9-9" value="INÍCIO" style="ellipse;whiteSpace=wrap;html=1;aspect=fixed;" vertex="1" parent="1">
          <mxGeometry x="325" y="360" width="60" height="60" as="geometry" />
        </mxCell>
        <mxCell id="OZZUEXOuU-KqCi0YCUT9-10" value="FIM" style="ellipse;whiteSpace=wrap;html=1;aspect=fixed;" vertex="1" parent="1">
          <mxGeometry x="335" y="830" width="60" height="60" as="geometry" />
        </mxCell>
        <mxCell id="OZZUEXOuU-KqCi0YCUT9-17" style="edgeStyle=orthogonalEdgeStyle;rounded=0;orthogonalLoop=1;jettySize=auto;html=1;exitX=0.5;exitY=1;exitDx=0;exitDy=0;entryX=0.5;entryY=0;entryDx=0;entryDy=0;" edge="1" parent="1" source="OZZUEXOuU-KqCi0YCUT9-11" target="OZZUEXOuU-KqCi0YCUT9-12">
          <mxGeometry relative="1" as="geometry" />
        </mxCell>
        <mxCell id="OZZUEXOuU-KqCi0YCUT9-11" value="NOTA1, NOTA2, NOTA3" style="shape=parallelogram;perimeter=parallelogramPerimeter;whiteSpace=wrap;html=1;fixedSize=1;" vertex="1" parent="1">
          <mxGeometry x="295" y="440" width="120" height="60" as="geometry" />
        </mxCell>
        <mxCell id="OZZUEXOuU-KqCi0YCUT9-19" style="edgeStyle=orthogonalEdgeStyle;rounded=0;orthogonalLoop=1;jettySize=auto;html=1;exitX=0.5;exitY=1;exitDx=0;exitDy=0;entryX=0.5;entryY=0;entryDx=0;entryDy=0;" edge="1" parent="1" source="OZZUEXOuU-KqCi0YCUT9-12" target="OZZUEXOuU-KqCi0YCUT9-13">
          <mxGeometry relative="1" as="geometry" />
        </mxCell>
        <mxCell id="OZZUEXOuU-KqCi0YCUT9-12" value="MEDIA = (NOTA1 + NOTA2 + NOTA3)/3" style="rounded=0;whiteSpace=wrap;html=1;" vertex="1" parent="1">
          <mxGeometry x="295" y="524.5" width="120" height="60" as="geometry" />
        </mxCell>
        <mxCell id="OZZUEXOuU-KqCi0YCUT9-22" style="edgeStyle=orthogonalEdgeStyle;rounded=0;orthogonalLoop=1;jettySize=auto;html=1;exitX=1;exitY=0.5;exitDx=0;exitDy=0;entryX=0.5;entryY=0;entryDx=0;entryDy=0;" edge="1" parent="1" source="OZZUEXOuU-KqCi0YCUT9-13" target="OZZUEXOuU-KqCi0YCUT9-15">
          <mxGeometry relative="1" as="geometry">
            <Array as="points">
              <mxPoint x="510" y="670" />
              <mxPoint x="510" y="735" />
              <mxPoint x="430" y="735" />
            </Array>
          </mxGeometry>
        </mxCell>
        <mxCell id="OZZUEXOuU-KqCi0YCUT9-25" value="NÃO" style="edgeLabel;html=1;align=center;verticalAlign=middle;resizable=0;points=[];" vertex="1" connectable="0" parent="OZZUEXOuU-KqCi0YCUT9-22">
          <mxGeometry x="-0.8174" y="-3" relative="1" as="geometry">
            <mxPoint y="-3" as="offset" />
          </mxGeometry>
        </mxCell>
        <mxCell id="OZZUEXOuU-KqCi0YCUT9-13" value="MEDIA &amp;gt;= 7" style="rhombus;whiteSpace=wrap;html=1;" vertex="1" parent="1">
          <mxGeometry x="260" y="630" width="190" height="80" as="geometry" />
        </mxCell>
        <mxCell id="OZZUEXOuU-KqCi0YCUT9-14" value="APROVADO" style="shape=document;whiteSpace=wrap;html=1;boundedLbl=1;" vertex="1" parent="1">
          <mxGeometry x="245" y="760" width="110" height="50" as="geometry" />
        </mxCell>
        <mxCell id="OZZUEXOuU-KqCi0YCUT9-24" style="edgeStyle=orthogonalEdgeStyle;rounded=0;orthogonalLoop=1;jettySize=auto;html=1;entryX=1;entryY=0.5;entryDx=0;entryDy=0;" edge="1" parent="1" source="OZZUEXOuU-KqCi0YCUT9-15" target="OZZUEXOuU-KqCi0YCUT9-10">
          <mxGeometry relative="1" as="geometry" />
        </mxCell>
        <mxCell id="OZZUEXOuU-KqCi0YCUT9-15" value="REPROVADO" style="shape=document;whiteSpace=wrap;html=1;boundedLbl=1;" vertex="1" parent="1">
          <mxGeometry x="375" y="760" width="110" height="50" as="geometry" />
        </mxCell>
        <mxCell id="OZZUEXOuU-KqCi0YCUT9-21" style="edgeStyle=orthogonalEdgeStyle;rounded=0;orthogonalLoop=1;jettySize=auto;html=1;exitX=0;exitY=0.5;exitDx=0;exitDy=0;entryX=0.445;entryY=-0.02;entryDx=0;entryDy=0;entryPerimeter=0;" edge="1" parent="1" source="OZZUEXOuU-KqCi0YCUT9-13" target="OZZUEXOuU-KqCi0YCUT9-14">
          <mxGeometry relative="1" as="geometry">
            <Array as="points">
              <mxPoint x="210" y="670" />
              <mxPoint x="210" y="735" />
              <mxPoint x="294" y="735" />
            </Array>
          </mxGeometry>
        </mxCell>
        <mxCell id="OZZUEXOuU-KqCi0YCUT9-26" value="SIM" style="edgeLabel;html=1;align=center;verticalAlign=middle;resizable=0;points=[];" vertex="1" connectable="0" parent="OZZUEXOuU-KqCi0YCUT9-21">
          <mxGeometry x="-0.8386" y="-2" relative="1" as="geometry">
            <mxPoint as="offset" />
          </mxGeometry>
        </mxCell>
        <mxCell id="OZZUEXOuU-KqCi0YCUT9-23" style="edgeStyle=orthogonalEdgeStyle;rounded=0;orthogonalLoop=1;jettySize=auto;html=1;entryX=0;entryY=0.5;entryDx=0;entryDy=0;" edge="1" parent="1" source="OZZUEXOuU-KqCi0YCUT9-14" target="OZZUEXOuU-KqCi0YCUT9-10">
          <mxGeometry relative="1" as="geometry" />
        </mxCell>
      </root>
    </mxGraphModel>
  </diagram>
</mxfile>
